# xmcd
#
# Track frame offsets: 
#        150
#        19657
#        35822
#        51557
#        71276
#        86466
#        102569
#        123413
#        137976
#        159781
#        172596
#        192259
#        209520
#
# Disc length: 2994 seconds
#
# Revision: 0
# Processed by: cddbd v1.5.2PL0 Copyright (c) Steve Scherf et al.
# Submitted via: ExactAudioCopy v1.3
#
DISCID=b10bb00d
DTITLE=Dany Franchi - Promblem Child
DYEAR=2018
DGENRE=Blues
TTITLE0=Back To The River
TTITLE1=Give Me A Sign
TTITLE2=Big Town Playboy
TTITLE3=Real Love
TTITLE4=Run Around
TTITLE5=You Don't Want Me
TTITLE6=Don't Steal My Time
TTITLE7=Sen-Sa-Shun
TTITLE8=My Only One
TTITLE9=Big Kind-Hearted Man
TTITLE10=Everything Gonna Be Alright
TTITLE11=Wanna Know
TTITLE12=Problem Child
EXTD=
EXTT0=
EXTT1=
EXTT2=
EXTT3=
EXTT4=
EXTT5=
EXTT6=
EXTT7=
EXTT8=
EXTT9=
EXTT10=
EXTT11=
EXTT12=
PLAYORDER=
